<svg xmlns="http://www.w3.org/2000/svg" width="42" height="42" viewBox="0 0 42 42"><defs><style>.a{fill:#cedfff;opacity:0;}.b{fill:#fff;}</style></defs><g transform="translate(-240 -99)"><rect class="a" width="42" height="42" transform="translate(240 99)"/><g transform="translate(-98.52 -275.513)"><path class="b" d="M351.447,388.524a1.148,1.148,0,0,0-1.548-.017.978.978,0,0,0-.018,1.45l4.543,4.348a1.134,1.134,0,0,0,.774.308h.009a1.136,1.136,0,0,0,.771-.3l8.664-8.006a.98.98,0,0,0,.008-1.45,1.15,1.15,0,0,0-1.549-.008l-7.88,7.281Zm15.446-7.125a.832.832,0,0,1,.6.781V391.7c-.271,5.643-9.767,9.079-10.171,9.223a.94.94,0,0,1-.627,0c-.4-.144-9.9-3.579-10.171-9.186V382.18a.832.832,0,0,1,.594-.781l9.6-3.1a.949.949,0,0,1,.575,0Zm0,0" transform="translate(3.434 2.595)"/></g></g></svg>